<?xml version="1.0" encoding="utf-8"?>
<!-- Generator: Adobe Illustrator 24.1.2, SVG Export Plug-In . SVG Version: 6.00 Build 0)  -->
<svg version="1.1" id="Laag_1" xmlns="http://www.w3.org/2000/svg" xmlns:xlink="http://www.w3.org/1999/xlink" x="0px" y="0px"
	 viewBox="0 0 420 325" style="enable-background:new 0 0 420 325;" xml:space="preserve">
<style type="text/css">
	.st0{fill:#0A1C2D;}
	.st1{fill:none;}
	.st2{fill:#FFFFFF;}
	.st3{font-family:'Striker';}
	.st4{font-size:28px;}
	.st5{fill-rule:evenodd;clip-rule:evenodd;fill:#FF6600;}
	.st6{fill:#FF6600;}
	.st7{opacity:5.000000e-02;}
	.st8{fill:#FFFFFF;stroke:#FFFFFF;stroke-width:0.25;stroke-miterlimit:10;}
</style>
<circle class="st0" cx="215.5" cy="162.9" r="144"/>
<g>
	<rect x="154.6" y="120.8" class="st1" width="69.8" height="33.1"/>
	<text transform="matrix(1 0 0 1 154.6416 150.4869)" class="st2 st3 st4">T p</text>
	<text transform="matrix(1 0 0 1 214.6616 151.3986)" class="st2 st3 st4">Top </text>
	<rect x="184.5" y="129.9" class="st2" width="5" height="21"/>
	<g id="Page-1_7_">
		<g id="Icon-Set-Filled_7_" transform="translate(-518.000000, -1039.000000)">
			<path id="checkmark_7_" class="st5" d="M710.6,1160.3c-0.5-0.5-1.2-0.5-1.7,0l-4.2,4.3l-1-1.1c-0.5-0.5-1.2-0.5-1.7,0
				c-0.5,0.5-0.5,1.2,0,1.7l1.9,1.9c0.5,0.5,1.2,0.5,1.7,0l5-5.1C711.1,1161.5,711.1,1160.7,710.6,1160.3"/>
		</g>
	</g>
	<text transform="matrix(1 0 0 1 136.6128 198.652)" class="st6 st3 st4">Telecom</text>
</g>
<g class="st7">
	<path class="st8" d="M142.2,80.6c0,1.6-0.7,3-1.5,3c-0.8,0-1.5-1.3-1.5-2.9c0-1.6,0.6-3,1.5-3C141.5,77.6,142.2,78.9,142.2,80.6z"
		/>
	<path class="st8" d="M136.4,92.1c0,1.7-1.3,3-2.9,3.1c-1.6,0-2.9-1.3-2.9-2.9c0-1.7,1.3-3,2.9-3.1C135,89.2,136.4,90.5,136.4,92.1z
		"/>
	<path class="st8" d="M127.6,106.7c0,1.6-1.3,3-2.9,3c-1.6,0-2.9-1.3-2.9-2.9s1.3-3,2.9-3C126.3,103.8,127.6,105.1,127.6,106.7z"/>
	<path class="st8" d="M156.7,74.7c0,1.7-1.3,3.1-2.9,3.2c-1.6,0.1-2.9-1.2-2.9-2.9s1.3-3.1,2.9-3.2C155.4,71.7,156.7,73,156.7,74.7z
		"/>
	<path class="st8" d="M153.8,83.4c0,1.7-1.3,3.1-2.9,3.1c-1.6,0.1-2.9-1.2-2.9-2.9c0-1.7,1.3-3.1,2.9-3.1
		C152.5,80.4,153.8,81.7,153.8,83.4z"/>
	<path class="st8" d="M148,93.6c0,2.5-1.3,4.5-2.9,4.5c-1.6,0-2.9-1.9-2.9-4.4s1.3-4.5,2.9-4.5C146.7,89.2,148,91.1,148,93.6z"/>
	<path class="st8" d="M139.3,108.2c0,2.4-1.3,4.5-2.9,4.5c-1.6,0-2.9-1.9-2.9-4.4c0-2.4,1.3-4.4,2.9-4.5
		C138,103.8,139.3,105.7,139.3,108.2z"/>
	<path class="st8" d="M130.5,128.5c0,2.4-1.3,4.4-2.9,4.4c-1.6,0-2.9-1.9-2.9-4.4c0-2.4,1.3-4.4,2.9-4.4
		C129.2,124.2,130.5,126.1,130.5,128.5z"/>
	<path class="st8" d="M121.8,151.8c0,2.4-1.3,4.3-2.9,4.3c-1.6,0-2.9-2-2.9-4.4s1.3-4.3,2.9-4.3
		C120.5,147.5,121.8,149.4,121.8,151.8z"/>
	<path class="st8" d="M174.1,70.2c0,2.5-2,4.5-4.4,4.6c-2.4,0.1-4.3-1.9-4.3-4.3s1.9-4.5,4.3-4.6C172.2,65.8,174.1,67.7,174.1,70.2z
		"/>
	<path class="st8" d="M168.3,81.9c0,2.5-2,4.6-4.4,4.7c-2.4,0.1-4.3-1.9-4.3-4.4c0-2.5,1.9-4.6,4.3-4.7
		C166.4,77.4,168.3,79.4,168.3,81.9z"/>
	<path class="st8" d="M165.4,95c0,3.3-2.6,6-5.8,6.1c-3.2,0.1-5.8-2.5-5.8-5.8s2.6-6,5.8-6.1C162.8,89.1,165.4,91.7,165.4,95z"/>
	<path class="st8" d="M156.7,112.5c0,3.3-2.6,5.9-5.8,6c-3.2,0-5.8-2.6-5.8-5.8s2.6-5.9,5.8-6C154.1,106.6,156.7,109.2,156.7,112.5z
		"/>
	<path class="st8" d="M148,132.9c0,3.2-2,5.8-4.4,5.8c-2.4,0-4.3-2.6-4.3-5.8c0-3.2,1.9-5.8,4.3-5.8C146,127.1,148,129.7,148,132.9z
		"/>
	<path class="st8" d="M139.3,156.2c0,3.2-1.3,5.8-2.9,5.7c-1.6,0-2.9-2.6-2.9-5.8c0-3.2,1.3-5.8,2.9-5.7
		C138,150.4,139.3,153,139.3,156.2z"/>
	<path class="st8" d="M194.5,68.9c0,3.3-3.9,6.1-8.8,6.2c-4.8,0.1-8.7-2.4-8.7-5.7s3.9-6,8.7-6.2C190.5,63,194.5,65.6,194.5,68.9z"
		/>
	<path class="st8" d="M185.8,97.9c0,3.3-3.3,6-7.3,6.1c-4,0.1-7.2-2.5-7.2-5.8c0-3.3,3.2-6,7.2-6.1C182.5,92,185.8,94.6,185.8,97.9z
		"/>
	<path class="st8" d="M179.9,116.9c0,4.1-3.9,7.4-8.7,7.4c-4.8,0-8.7-3.2-8.7-7.3s3.9-7.3,8.7-7.4
		C176,109.5,179.9,112.8,179.9,116.9z"/>
	<path class="st8" d="M171.2,137.3c0,4-3.3,7.3-7.3,7.3c-4,0-7.2-3.3-7.2-7.3s3.2-7.3,7.2-7.3C168,130,171.2,133.2,171.2,137.3z"/>
	<path class="st8" d="M162.5,162c0,3.2-2.6,5.8-5.8,5.8c-3.2,0-5.8-2.6-5.8-5.8c0-3.2,2.6-5.8,5.8-5.8
		C159.9,156.2,162.5,158.8,162.5,162z"/>
	<path class="st8" d="M153.8,186.7c0,2.4-0.7,4.3-1.5,4.3c-0.8,0-1.5-2-1.5-4.4s0.6-4.3,1.5-4.3
		C153.1,182.4,153.8,184.4,153.8,186.7z"/>
	<path class="st8" d="M229.3,128.5c0,5.7-4.6,10.3-10.2,10.3c-5.6,0-10.1-4.6-10.1-10.2c0-5.6,4.5-10.2,10.1-10.3
		C224.7,118.2,229.3,122.8,229.3,128.5z"/>
	<path class="st8" d="M220.6,151.8c0,5.6-3.9,10.1-8.8,10c-4.8-0.1-8.7-4.6-8.7-10.2c0-5.5,3.9-10,8.7-10
		C216.7,141.7,220.6,146.2,220.6,151.8z"/>
	<path class="st8" d="M211.9,175.2c0,4-3.3,7.1-7.3,7.1c-4-0.1-7.2-3.3-7.2-7.3s3.2-7.1,7.2-7.1
		C208.6,167.9,211.9,171.2,211.9,175.2z"/>
	<path class="st8" d="M203.2,199.9c0,3.1-2,5.6-4.4,5.5c-2.4-0.1-4.3-2.7-4.3-5.8c0-3.1,1.9-5.5,4.3-5.5
		C201.2,194.2,203.2,196.8,203.2,199.9z"/>
	<path class="st8" d="M174.1,217.3c0,1.6-0.7,2.8-1.5,2.8c-0.8,0-1.5-1.3-1.5-2.9s0.6-2.8,1.5-2.8
		C173.5,214.4,174.1,215.7,174.1,217.3z"/>
	<path class="st8" d="M197.4,221.7c0,2.3-1.3,4.1-2.9,4c-1.6-0.1-2.9-2-2.9-4.4s1.3-4.1,2.9-4C196.1,217.4,197.4,219.4,197.4,221.7z
		"/>
	<path class="st8" d="M243.9,160.6c0,5.6-3.9,10-8.8,9.9c-4.8-0.1-8.7-4.7-8.7-10.2s3.9-10,8.7-9.9
		C239.9,150.5,243.9,155,243.9,160.6z"/>
	<path class="st8" d="M235.2,184c0,5.5-3.3,9.9-7.3,9.7c-4-0.1-7.2-4.7-7.2-10.2c0-5.5,3.2-9.8,7.2-9.7
		C231.9,173.9,235.2,178.4,235.2,184z"/>
	<path class="st8" d="M226.4,205.8c0,3.1-2.6,5.5-5.8,5.3c-3.2-0.2-5.8-2.8-5.8-5.8c0-3.1,2.6-5.4,5.8-5.3
		C223.8,200.1,226.4,202.7,226.4,205.8z"/>
	<path class="st8" d="M220.6,227.5c0,2.3-1.3,4.1-2.9,4c-1.6-0.1-2.9-2-2.9-4.4s1.3-4.1,2.9-4C219.3,223.3,220.6,225.2,220.6,227.5z
		"/>
	<path class="st8" d="M243.9,214.5c0,3.1-2,5.5-4.4,5.4c-2.4-0.1-4.3-2.7-4.3-5.8c0-3.1,1.9-5.5,4.3-5.4
		C241.9,208.8,243.9,211.4,243.9,214.5z"/>
	<path class="st8" d="M238.1,234.7c0,1.6-0.7,2.8-1.5,2.7c-0.8-0.1-1.5-1.4-1.5-2.9s0.6-2.8,1.5-2.7
		C237.4,231.9,238.1,233.2,238.1,234.7z"/>
	<path class="st8" d="M258.4,224.6c0,2.3-1.3,4.1-2.9,4c-1.6-0.1-2.9-2-2.9-4.4c0-2.3,1.3-4.1,2.9-4
		C257.1,220.3,258.4,222.3,258.4,224.6z"/>
	<path class="st8" d="M252.6,243.5c0,1.5-1.3,2.6-2.9,2.5c-1.6-0.1-2.9-1.4-2.9-2.9c0-1.5,1.3-2.6,2.9-2.5
		C251.3,240.7,252.6,242,252.6,243.5z"/>
	<path class="st8" d="M270,236.3c0,2.3-1.3,4.1-2.9,4c-1.6-0.1-2.9-2.1-2.9-4.4s1.3-4.1,2.9-4C268.7,232,270,234,270,236.3z"/>
	<path class="st8" d="M264.2,252.3c0,1.5-1.3,2.6-2.9,2.5c-1.6-0.1-2.9-1.4-2.9-2.9c0-1.5,1.3-2.6,2.9-2.5
		C262.9,249.5,264.2,250.8,264.2,252.3z"/>
	<path class="st8" d="M296.2,215.9c0,3.9-2,7-4.4,6.8c-2.4-0.1-4.3-3.4-4.3-7.3s1.9-6.9,4.3-6.8C294.2,208.8,296.2,212,296.2,215.9z
		"/>
	<path class="st8" d="M284.6,234.8c0,3.1-1.3,5.6-2.9,5.5c-1.6-0.1-2.9-2.7-2.9-5.8s1.3-5.5,2.9-5.5
		C283.3,229.1,284.6,231.7,284.6,234.8z"/>
	<path class="st8" d="M272.9,246.4c0,1.6-0.7,2.8-1.5,2.7c-0.8-0.1-1.5-1.4-1.5-2.9s0.6-2.8,1.5-2.7
		C272.3,243.5,272.9,244.8,272.9,246.4z"/>
	<path class="st8" d="M304.9,214.4c0,3.2-0.7,5.7-1.5,5.7c-0.8,0-1.5-2.6-1.5-5.8s0.6-5.7,1.5-5.7
		C304.2,208.6,304.9,211.2,304.9,214.4z"/>
	<path class="st8" d="M296.2,228.9c0,1.6-0.7,2.8-1.5,2.7c-0.8,0-1.5-1.3-1.5-2.9c0-1.6,0.6-2.8,1.5-2.7
		C295.5,226,296.2,227.3,296.2,228.9z"/>
	<path class="st8" d="M287.5,241.9c0,0.8,0,1.5,0,1.5S287.5,242.7,287.5,241.9c0-0.8,0-1.5,0-1.5S287.5,241.1,287.5,241.9z"/>
	<path class="st8" d="M313.6,215.8c0,4-0.7,7.2-1.5,7.1c-0.8,0-1.5-3.3-1.5-7.3c0-4,0.6-7.2,1.5-7.1
		C313,208.6,313.6,211.8,313.6,215.8z"/>
	<path class="st8" d="M307.8,228.9c0,1.6-0.7,2.8-1.5,2.7c-0.8,0-1.5-1.3-1.5-2.9s0.6-2.8,1.5-2.7
		C307.2,226,307.8,227.3,307.8,228.9z"/>
	<path class="st8" d="M302,237.6c0,1.6-0.7,2.8-1.5,2.7c-0.8-0.1-1.5-1.4-1.5-2.9s0.6-2.8,1.5-2.7C301.3,234.8,302,236.1,302,237.6z
		"/>
	<path class="st8" d="M296.2,246.4c0,1.6-0.7,2.8-1.5,2.7c-0.8-0.1-1.5-1.4-1.5-2.9c0-1.5,0.6-2.8,1.5-2.7
		C295.5,243.5,296.2,244.8,296.2,246.4z"/>
	<path class="st8" d="M290.4,253.8c0,2.2-2,3.9-4.4,3.7c-2.4-0.2-4.3-2.1-4.3-4.4s1.9-3.9,4.3-3.7
		C288.4,249.6,290.4,251.6,290.4,253.8z"/>
	<path class="st8" d="M279.9,260.7c0,2.2-2,3.9-4.4,3.7c-2.4-0.2-4.3-2.1-4.3-4.4s1.9-3.9,4.3-3.7
		C277.9,256.5,279.9,258.4,279.9,260.7z"/>
	<path class="st8" d="M190.9,82.4c0,3.2-3.9,5.9-8.8,6c-4.8,0.1-8.7-2.4-8.7-5.6c0-3.2,3.9-5.9,8.7-6
		C187,76.7,190.9,79.2,190.9,82.4z"/>
	<path class="st8" d="M220.6,69.3c0,3.5-4.6,6.5-10.2,6.6c-5.6,0.1-10.1-2.6-10.1-6.1c0-3.5,4.5-6.5,10.1-6.6
		C216,63,220.6,65.7,220.6,69.3z"/>
	<path class="st8" d="M211.3,101.7c0,4.3-4.4,7.9-9.9,8c-5.4,0.1-9.8-3.3-9.8-7.6s4.4-7.9,9.8-8C206.9,94,211.3,97.4,211.3,101.7z"
		/>
	<path class="st8" d="M205.1,120.5c0,4.3-4.2,7.9-9.3,7.9c-5.1,0-9.3-3.5-9.3-7.8s4.2-7.9,9.3-7.9
		C200.9,112.7,205.1,116.2,205.1,120.5z"/>
	<path class="st8" d="M195.8,142.3c0,4.3-3.5,7.8-7.8,7.8c-4.3,0-7.7-3.5-7.7-7.8s3.5-7.8,7.7-7.8
		C192.3,134.6,195.8,138,195.8,142.3z"/>
	<path class="st8" d="M186.5,168.8c0,3.4-2.8,6.2-6.2,6.1c-3.4,0-6.2-2.8-6.2-6.2c0-3.4,2.8-6.2,6.2-6.1
		C183.7,162.6,186.5,165.4,186.5,168.8z"/>
	<path class="st8" d="M177.2,195.2c0,2.5-0.7,4.6-1.6,4.6c-0.9,0-1.6-2.1-1.6-4.7c0-2.5,0.7-4.6,1.6-4.6
		C176.5,190.6,177.2,192.7,177.2,195.2z"/>
	<path class="st8" d="M216.9,84.8c0,4-4.4,7.4-9.8,7.5c-5.4,0.1-9.7-3.1-9.7-7.1s4.3-7.3,9.7-7.5C212.5,77.6,216.9,80.7,216.9,84.8z
		"/>
	<path class="st8" d="M246.4,76.2c-1.1,3.9-6.9,5.9-13,4.4c-6-1.5-10-5.9-8.9-9.8c1.1-3.9,6.9-5.9,12.9-4.4
		C243.5,67.9,247.6,72.3,246.4,76.2z"/>
	<path class="st8" d="M235.3,106.7c0,4.3-4.4,7.9-9.9,8c-5.4,0.1-9.8-3.3-9.8-7.6s4.4-7.9,9.8-8C230.9,99,235.3,102.4,235.3,106.7z"
		/>
	<path class="st8" d="M240.9,89.7c0,4-4.4,7.4-9.8,7.5c-5.4,0.1-9.7-3.1-9.7-7.1s4.3-7.3,9.7-7.5C236.5,82.6,240.9,85.7,240.9,89.7z
		"/>
	<path class="st8" d="M252.6,137.2c0,5.7-4.6,10.3-10.2,10.3c-5.6,0-10.1-4.6-10.1-10.2c0-5.6,4.5-10.2,10.1-10.3
		C248,126.9,252.6,131.5,252.6,137.2z"/>
	<path class="st8" d="M266.7,82.1c-0.8,3.5-5.6,5.5-10.7,4.5c-5.1-1-8.6-4.6-7.8-8.1c0.8-3.5,5.5-5.5,10.7-4.5
		C264,75,267.5,78.6,266.7,82.1z"/>
	<path class="st8" d="M258.6,115.4c0,4.3-4.4,7.9-9.9,8c-5.4,0.1-9.8-3.3-9.8-7.6c0-4.3,4.4-7.9,9.8-8
		C254.1,107.7,258.6,111.1,258.6,115.4z"/>
	<path class="st8" d="M264.1,97.4c0,4.6-4.4,8.4-9.8,8.6c-5.4,0.1-9.7-3.5-9.7-8.1s4.3-8.4,9.7-8.5
		C259.7,89.2,264.1,92.8,264.1,97.4z"/>
	<path class="st8" d="M264.2,172.2c0,5.6-3.9,10-8.8,9.9c-4.8-0.1-8.7-4.7-8.7-10.2c0-5.5,3.9-10,8.7-9.9
		C260.3,162.1,264.2,166.6,264.2,172.2z"/>
	<path class="st8" d="M255.5,195.6c0,5.5-3.3,9.9-7.3,9.7c-4-0.1-7.2-4.7-7.2-10.2s3.2-9.8,7.2-9.7
		C252.2,185.5,255.5,190.1,255.5,195.6z"/>
	<path class="st8" d="M272.9,148.8c0,5.7-4.6,10.3-10.2,10.3c-5.6,0-10.1-4.6-10.1-10.2c0-5.6,4.5-10.2,10.1-10.3
		C268.3,138.6,272.9,143.1,272.9,148.8z"/>
	<path class="st8" d="M278.9,127c0,4.3-4.4,7.9-9.9,8c-5.4,0.1-9.8-3.3-9.8-7.6s4.4-7.9,9.8-8C274.5,119.3,278.9,122.7,278.9,127z"
		/>
	<path class="st8" d="M284.5,109c0,4.6-4.4,8.4-9.8,8.6c-5.4,0.1-9.7-3.5-9.7-8.1s4.3-8.4,9.7-8.5
		C280.1,100.8,284.5,104.4,284.5,109z"/>
	<path class="st8" d="M310.5,122.2c0.8,2.6-0.2,5.3-2.1,5.9c-1.9,0.7-4.1-0.9-4.9-3.5s0.1-5.3,2.1-5.9
		C307.5,117.9,309.7,119.5,310.5,122.2z"/>
	<path class="st8" d="M286.1,94.4c-1.3,3.3-6.3,4.6-11.3,2.9c-4.9-1.7-7.8-5.8-6.6-9.1c1.3-3.3,6.3-4.6,11.2-2.9
		C284.4,86.9,287.4,91,286.1,94.4z"/>
	<path class="st8" d="M302.1,114.5c-2.3,2.8-7.5,2.4-11.6-0.9c-4.1-3.2-5.6-8-3.3-10.7c2.3-2.7,7.4-2.4,11.5,0.8
		C302.9,106.9,304.4,111.7,302.1,114.5z"/>
	<path class="st8" d="M281.2,184.6c0,4.9-3.5,8.8-7.7,8.7c-4.2-0.1-7.6-4.1-7.6-9s3.4-8.8,7.6-8.7
		C277.8,175.7,281.2,179.7,281.2,184.6z"/>
	<path class="st8" d="M273.6,205.2c0,4.9-2.9,8.7-6.4,8.6c-3.5-0.1-6.4-4.1-6.4-9c0-4.8,2.8-8.7,6.4-8.6
		C270.7,196.3,273.6,200.3,273.6,205.2z"/>
	<path class="st8" d="M288.9,164c0,5-4,9.1-9,9.1c-4.9,0-8.9-4-8.9-9c0-4.9,4-9,8.9-9.1C284.9,155,288.9,159,288.9,164z"/>
	<path class="st8" d="M294.2,144.8c0,3.8-3.9,6.9-8.7,7c-4.8,0.1-8.7-2.9-8.7-6.7s3.9-6.9,8.7-7C290.3,138.1,294.2,141,294.2,144.8z
		"/>
	<path class="st8" d="M299.1,129c0,4.1-3.9,7.4-8.6,7.5c-4.7,0.1-8.5-3.1-8.5-7.1c0-4,3.8-7.4,8.5-7.5
		C295.2,121.7,299.1,124.9,299.1,129z"/>
	<path class="st8" d="M291.8,199.6c0,3.6-2.6,6.5-5.7,6.4c-3.1-0.1-5.6-3-5.6-6.6s2.5-6.5,5.6-6.4
		C289.2,193.1,291.8,196,291.8,199.6z"/>
	<path class="st8" d="M303.2,169.9c0,3.7-3,6.7-6.6,6.7c-3.6,0-6.6-3-6.6-6.6c0-3.6,2.9-6.6,6.6-6.7
		C300.3,163.3,303.2,166.2,303.2,169.9z"/>
	<path class="st8" d="M307.1,152.9c0,2.8-2.9,5.1-6.4,5.2c-3.5,0.1-6.4-2.1-6.4-4.9c0-2.8,2.8-5.1,6.4-5.2
		C304.2,147.9,307.1,150.1,307.1,152.9z"/>
	<path class="st8" d="M310.7,138.3c0,3-2.9,5.5-6.4,5.5c-3.5,0.1-6.3-2.3-6.3-5.2c0-3,2.8-5.4,6.3-5.5
		C307.9,133,310.7,135.3,310.7,138.3z"/>
	<path class="st8" d="M297.8,184.8c0,3.7-3,6.7-6.6,6.7c-3.6,0-6.6-3-6.6-6.6s2.9-6.6,6.6-6.7C294.9,178.2,297.8,181.1,297.8,184.8z
		"/>
	<path class="st8" d="M304.8,201.9c0,2.2-1.6,4-3.5,4c-1.9,0-3.5-1.9-3.5-4.1s1.6-4,3.5-4C303.2,197.8,304.8,199.7,304.8,201.9z"/>
	<path class="st8" d="M314.8,171.8c0,2.3-1.9,4.1-4.1,4.1c-2.3,0-4.1-1.8-4.1-4.1c0-2.3,1.8-4.1,4.1-4.1
		C312.9,167.7,314.8,169.5,314.8,171.8z"/>
	<path class="st8" d="M317.2,158.3c0,1.7-1.8,3.2-4,3.2c-2.2,0-4-1.3-4-3c0-1.7,1.8-3.2,4-3.2C315.4,155.2,317.2,156.6,317.2,158.3z
		"/>
	<path class="st8" d="M319.4,146.4c0,1.9-1.8,3.4-3.9,3.4c-2.2,0-3.9-1.4-3.9-3.2s1.7-3.4,3.9-3.4
		C317.7,143.1,319.4,144.5,319.4,146.4z"/>
	<path class="st8" d="M308.5,189.8c0,2.3-1.9,4.1-4.1,4.1c-2.3,0-4.1-1.8-4.1-4.1s1.8-4.1,4.1-4.1
		C306.7,185.7,308.5,187.5,308.5,189.8z"/>
	<path class="st8" d="M317.8,200.6c0,2.2-1.6,4-3.5,4c-1.9,0-3.5-1.9-3.5-4.1c0-2.2,1.6-4,3.5-4
		C316.2,196.5,317.8,198.3,317.8,200.6z"/>
	<path class="st8" d="M322.3,171.8c0,1.6-1.3,2.8-2.8,2.8c-1.5,0-2.8-1.3-2.8-2.8s1.2-2.8,2.8-2.8
		C321.1,169,322.3,170.2,322.3,171.8z"/>
	<path class="st8" d="M321.6,188.5c0,2.3-1.9,4.1-4.1,4.1c-2.3,0-4.1-1.8-4.1-4.1c0-2.3,1.8-4.1,4.1-4.1
		C319.7,184.3,321.6,186.2,321.6,188.5z"/>
	<path class="st8" d="M283.9,218.5c0,3.6-2.6,6.5-5.7,6.4c-3.1-0.1-5.6-3-5.6-6.6s2.5-6.5,5.6-6.4
		C281.4,211.9,283.9,214.9,283.9,218.5z"/>
</g>
</svg>
