<?xml version="1.0" ?>

<!DOCTYPE svg  PUBLIC '-//W3C//DTD SVG 1.1//EN'  'http://www.w3.org/Graphics/SVG/1.1/DTD/svg11.dtd'>

<!-- Uploaded to: SVG Repo, www.svgrepo.com, Generator: SVG Repo Mixer Tools -->
<svg fill="#000000" width="800px" height="800px" viewBox="0 0 1069 1069" style="fill-rule:evenodd;clip-rule:evenodd;stroke-linejoin:round;stroke-miterlimit:2;" version="1.1" xml:space="preserve" xmlns="http://www.w3.org/2000/svg" xmlns:serif="http://www.serif.com/" xmlns:xlink="http://www.w3.org/1999/xlink">

<rect height="1066.67" id="Chip-protector" style="fill:none;" width="1066.67" x="1.167" y="0.245"/>

<g>

<path d="M785.78,85.665l-1.28,-0.004c-145.234,0 -354.765,0 -499.999,0c-52.491,0 -102.832,20.852 -139.949,57.969c-37.116,37.116 -57.968,87.457 -57.968,139.948c-0,145.234 -0,354.765 -0,500c-0,109.306 88.61,197.916 197.916,197.917c114.831,-0 261.545,-0 346.724,-0l1.245,-0.004c52.676,-0.331 103.07,-21.652 139.996,-59.27c44.362,-45.193 109.312,-111.359 153.276,-156.147c36.325,-37.005 56.676,-86.789 56.676,-138.644l0,-343.853c-0,-108.88 -87.921,-197.224 -196.637,-197.912Zm-1.28,62.496l0.876,0.003c74.384,0.47 134.54,60.916 134.541,135.411l0,343.855c0,35.48 -13.924,69.542 -38.778,94.862l-153.276,156.147c-25.464,25.941 -60.287,40.555 -96.637,40.556l-346.725,-0c-74.79,-0.002 -135.417,-60.629 -135.417,-135.417c-0,-145.235 -0,-354.766 -0,-500c-0,-35.915 14.267,-70.359 39.662,-95.754c25.396,-25.396 59.84,-39.663 95.755,-39.663c145.234,0 354.765,0 499.999,0Zm-229.166,458.364l83.333,-0l1.343,-0.153c5.981,-0.827 29.907,-5.734 29.907,-31.367c0,-1.602 0,-10.196 0,-21.858c0,-30.637 -12.269,-59.999 -34.068,-81.527c-21.799,-21.528 -51.311,-33.43 -81.946,-33.047l-20.834,0.26c-62.719,0.783 -113.151,51.849 -113.152,114.573l0,63.536c0.001,63.283 51.301,114.583 114.584,114.583c31.585,-0 65.834,-0 90.482,-0c30.389,-0 59.533,-12.072 81.022,-33.561l34.519,-34.518c21.488,-21.489 33.56,-50.633 33.56,-81.023c-0,-35.441 -0,-91.93 -0,-139.112c0,-30.39 -12.072,-59.535 -33.561,-81.023c-21.488,-21.489 -50.633,-33.561 -81.023,-33.561c-67.379,-0 -161.786,-0 -229.166,-0c-30.389,-0 -59.534,12.072 -81.023,33.56c-21.488,21.489 -33.561,50.634 -33.561,81.023c0,102.725 0,263.869 0,263.869c0,17.247 14.003,31.25 31.25,31.25c17.248,-0 31.25,-14.003 31.25,-31.25c0,-0 0,-161.144 0,-263.869c0,-13.813 5.488,-27.061 15.255,-36.828c9.768,-9.768 23.016,-15.255 36.829,-15.255l229.166,-0c13.814,-0 27.061,5.487 36.829,15.255c9.768,9.767 15.255,23.015 15.255,36.828l-0,139.114c-0,13.812 -5.487,27.059 -15.253,36.826c-0.003,0.003 -34.52,34.52 -34.52,34.52c-9.769,9.768 -23.016,15.255 -36.828,15.255l-90.482,-0c-28.765,-0 -52.083,-23.318 -52.084,-52.082c0,-0.003 0,-63.536 0,-63.536c0.001,-28.512 22.924,-51.722 51.431,-52.079c0.004,-0 20.835,-0.26 20.835,-0.26c13.925,-0.174 27.34,5.236 37.249,15.021c7.716,7.621 12.806,17.402 14.664,27.936l-51.262,-0c-17.248,-0 -31.25,14.002 -31.25,31.25c-0,17.247 14.002,31.25 31.25,31.25Z"/>

<path d="M253.25,779.931c18.254,0 33.074,14.82 33.074,33.074c-0,18.253 -14.82,33.073 -33.074,33.073c-18.253,-0 -33.073,-14.82 -33.073,-33.073c0,-18.254 14.82,-33.074 33.073,-33.074Zm0,-558.853c18.254,-0 33.074,14.819 33.074,33.073c-0,18.254 -14.82,33.073 -33.074,33.073c-18.253,0 -33.073,-14.819 -33.073,-33.073c0,-18.254 14.82,-33.073 33.073,-33.073Zm564.324,-0c18.253,-0 33.073,14.819 33.073,33.073c0,18.254 -14.82,33.073 -33.073,33.073c-18.254,0 -33.074,-14.819 -33.074,-33.073c0,-18.254 14.82,-33.073 33.074,-33.073Z" style="fill-opacity:0.5;"/>

</g>

</svg>